<?xml version="1.0" standalone="no"?>
<!DOCTYPE svg PUBLIC "-//W3C//DTD SVG 20010904//EN"
 "http://www.w3.org/TR/2001/REC-SVG-20010904/DTD/svg10.dtd">
<svg version="1.0" xmlns="http://www.w3.org/2000/svg"
 width="233.000000pt" height="199.000000pt" viewBox="0 0 233.000000 199.000000"
 preserveAspectRatio="xMidYMid meet">

<g transform="translate(0.000000,199.000000) scale(0.100000,-0.100000)"
fill="#000000" stroke="none">
<path d="M725 1876 c-112 -26 -239 -110 -365 -242 -92 -97 -123 -162 -118
-251 3 -55 1 -63 -15 -63 -9 0 -26 -9 -38 -21 -17 -17 -20 -28 -14 -57 17 -89
74 -156 177 -205 37 -18 70 -39 73 -48 3 -9 17 -21 31 -28 22 -10 34 -8 82 14
30 14 56 24 58 22 5 -5 34 -120 34 -134 0 -7 -23 1 -57 22 -64 38 -83 42 -116
21 -12 -7 -46 -17 -75 -20 -30 -4 -90 -19 -134 -33 -69 -22 -82 -30 -92 -54
-6 -16 -15 -29 -22 -29 -44 0 -52 -166 -13 -265 16 -39 31 -61 43 -63 17 -4
18 1 11 76 -6 69 -4 85 15 128 19 44 28 52 88 81 37 18 91 47 120 64 l54 32
41 -20 c67 -33 146 -55 171 -49 15 4 26 1 29 -7 4 -10 -18 -12 -99 -9 -121 5
-167 -5 -280 -57 -75 -36 -102 -60 -89 -82 4 -5 1 -36 -6 -68 -10 -51 -9 -71
6 -131 17 -70 57 -134 78 -127 7 2 11 49 11 124 l1 121 65 63 65 62 120 3 c66
2 131 5 145 6 14 2 26 -1 28 -7 2 -5 -34 -15 -80 -22 -76 -11 -98 -21 -110
-53 -2 -4 -41 -34 -88 -67 -87 -60 -105 -88 -80 -118 8 -9 10 -28 6 -51 -14
-74 56 -204 110 -204 28 0 29 9 10 76 -8 27 -17 74 -21 104 -6 55 -6 56 47
125 41 53 61 71 88 77 19 5 70 20 113 34 l79 26 44 -31 c90 -66 126 -76 269
-76 148 0 181 8 268 67 l58 39 77 -25 c42 -14 94 -28 115 -32 26 -4 43 -15 55
-33 9 -14 31 -44 49 -67 38 -47 41 -83 18 -179 -8 -33 -14 -70 -15 -82 0 -51
68 -12 108 62 9 17 17 57 18 90 1 33 7 72 14 87 16 35 4 50 -90 116 -36 25
-76 58 -90 74 -21 25 -37 31 -100 39 -41 6 -82 15 -90 19 -28 16 15 23 70 11
62 -13 144 -14 186 -2 29 8 35 5 105 -66 l74 -74 -1 -120 c0 -65 2 -119 5
-119 17 1 43 33 63 76 20 43 23 63 21 162 -1 71 -6 119 -14 128 -14 17 -120
67 -189 90 -36 12 -78 15 -159 12 -61 -1 -111 -1 -111 2 0 3 5 12 10 20 6 10
10 11 10 3 0 -7 10 -13 23 -13 29 1 134 36 164 55 12 8 27 15 33 15 6 0 58
-27 115 -60 57 -33 108 -60 114 -60 6 0 20 -21 31 -47 17 -38 21 -65 19 -127
-1 -47 2 -81 8 -83 28 -10 73 119 73 207 0 59 -20 120 -40 120 -5 0 -15 12
-22 28 -16 32 -93 64 -203 82 -38 7 -85 19 -103 29 -33 16 -34 16 -103 -21
-55 -30 -69 -34 -65 -20 2 9 10 41 16 70 7 28 15 54 19 56 3 2 24 -4 46 -14
76 -34 83 -34 113 -2 15 16 53 42 84 57 82 40 123 78 153 141 34 73 31 114
-11 134 -30 14 -31 17 -31 80 1 92 -27 148 -121 243 -201 204 -329 266 -527
254 -107 -7 -156 -20 -192 -51 -40 -34 -26 -53 44 -60 83 -9 153 -32 188 -61
l30 -26 -67 7 c-76 7 -81 2 -48 -51 22 -36 98 -96 175 -140 28 -15 86 -54 130
-86 87 -63 181 -109 221 -109 l25 0 -20 -26 c-14 -18 -21 -41 -21 -72 l0 -46
-20 22 c-29 31 -46 28 -111 -23 l-57 -44 -27 39 c-28 41 -57 58 -145 86 -67
21 -64 18 -49 42 21 33 5 54 -38 50 -34 -3 -38 -6 -38 -30 1 -17 -5 -28 -13
-28 -12 0 -23 10 -82 78 -10 12 -24 22 -31 22 -7 0 -9 -9 -6 -22 6 -23 5 -23
-89 -23 -94 0 -95 0 -91 23 5 26 6 25 -27 10 -14 -6 -28 -19 -31 -29 -7 -21
-52 -59 -69 -59 -7 0 -12 12 -11 27 0 30 -19 39 -61 29 -28 -7 -31 -22 -7 -48
9 -10 14 -19 12 -21 -2 -2 -38 -13 -79 -26 -73 -23 -139 -71 -152 -110 -3 -10
-20 -1 -61 32 -64 52 -88 58 -111 26 -14 -21 -15 -20 -22 31 -4 30 -15 61 -25
71 -19 19 -18 19 3 19 13 0 52 11 88 25 55 21 90 44 176 114 6 5 55 35 108 67
100 59 176 131 176 166 0 18 -5 19 -67 13 l-68 -7 25 19 c47 38 94 55 169 65
42 5 80 13 86 19 16 15 -7 42 -57 67 -59 30 -222 39 -313 18z m506 -836 c25
-14 27 -56 2 -45 -45 20 -81 17 -105 -7 l-23 -23 40 -5 c27 -3 41 -10 43 -22
3 -15 -4 -18 -37 -18 -34 0 -41 -3 -41 -20 0 -17 7 -20 41 -20 33 0 40 -3 37
-17 -2 -12 -15 -20 -41 -23 -37 -5 -37 -5 -22 -27 18 -25 62 -31 97 -12 31 17
45 -4 19 -30 -31 -31 -100 -29 -140 5 -17 14 -31 32 -31 40 0 7 -9 18 -20 24
-23 13 -27 40 -5 40 8 0 15 9 15 20 0 11 -7 20 -15 20 -22 0 -18 31 5 37 11 3
20 12 20 20 0 8 13 28 29 44 23 23 38 29 71 29 23 0 50 -5 61 -10z"/>
</g>
</svg>
